<svg xmlns="http://www.w3.org/2000/svg" viewBox="0 0 340 1200" fill="none"><defs><linearGradient id="g-culm" x1="0" x2="1"><stop offset="0" stop-color="#2E5A3A"/><stop offset=".45" stop-color="#4F7F4E"/><stop offset="1" stop-color="#2E5A3A"/></linearGradient></defs><path d="M87.0 1200.0 L86.0 1060.9 Q99.0 1056.9 112.0 1060.9 L113.0 1200.0 Z" fill="url(#g-culm)" stroke="#CDA85A" stroke-width="1" stroke-opacity=".55"/><rect x="84.0" y="1056.9" width="30.0" height="4" rx="2" fill="#CDA85A" opacity=".85"/><path d="M94.3 1194.0 L93.3 1065.9" stroke="#E2C589" stroke-width="1.2" opacity=".35"/><path d="M86.0 1057.9 L85.1 926.6 Q98.1 922.6 111.1 926.6 L112.0 1057.9 Z" fill="url(#g-culm)" stroke="#CDA85A" stroke-width="1" stroke-opacity=".55"/><rect x="83.1" y="922.6" width="30.0" height="4" rx="2" fill="#CDA85A" opacity=".85"/><path d="M93.3 1051.9 L92.3 931.6" stroke="#E2C589" stroke-width="1.2" opacity=".35"/><path d="M85.1 923.6 L84.0 769.8 Q97.0 765.8 110.0 769.8 L111.1 923.6 Z" fill="url(#g-culm)" stroke="#CDA85A" stroke-width="1" stroke-opacity=".55"/><rect x="82.0" y="765.8" width="30.0" height="4" rx="2" fill="#CDA85A" opacity=".85"/><path d="M92.3 917.6 L91.2 774.8" stroke="#E2C589" stroke-width="1.2" opacity=".35"/><path d="M84.0 766.8 L83.0 639.1 Q96.0 635.1 109.0 639.1 L110.0 766.8 Z" fill="url(#g-culm)" stroke="#CDA85A" stroke-width="1" stroke-opacity=".55"/><rect x="81.0" y="635.1" width="30.0" height="4" rx="2" fill="#CDA85A" opacity=".85"/><path d="M91.2 760.8 L90.3 644.1" stroke="#E2C589" stroke-width="1.2" opacity=".35"/><path d="M83.0 636.1 L82.0 487.5 Q95.0 483.5 108.0 487.5 L109.0 636.1 Z" fill="url(#g-culm)" stroke="#CDA85A" stroke-width="1" stroke-opacity=".55"/><rect x="80.0" y="483.5" width="30.0" height="4" rx="2" fill="#CDA85A" opacity=".85"/><path d="M90.3 630.1 L89.3 492.5" stroke="#E2C589" stroke-width="1.2" opacity=".35"/><path d="M82.0 484.5 L81.0 343.5 Q94.0 339.5 107.0 343.5 L108.0 484.5 Z" fill="url(#g-culm)" stroke="#CDA85A" stroke-width="1" stroke-opacity=".55"/><rect x="79.0" y="339.5" width="30.0" height="4" rx="2" fill="#CDA85A" opacity=".85"/><path d="M89.3 478.5 L88.2 348.5" stroke="#E2C589" stroke-width="1.2" opacity=".35"/><path d="M81.0 340.5 L80.1 213.4 Q93.1 209.4 106.1 213.4 L107.0 340.5 Z" fill="url(#g-culm)" stroke="#CDA85A" stroke-width="1" stroke-opacity=".55"/><rect x="78.1" y="209.4" width="30.0" height="4" rx="2" fill="#CDA85A" opacity=".85"/><path d="M88.2 334.5 L87.3 218.4" stroke="#E2C589" stroke-width="1.2" opacity=".35"/><path d="M80.1 210.4 L79.0 63.1 Q92.0 59.1 105.0 63.1 L106.1 210.4 Z" fill="url(#g-culm)" stroke="#CDA85A" stroke-width="1" stroke-opacity=".55"/><rect x="77.0" y="59.1" width="30.0" height="4" rx="2" fill="#CDA85A" opacity=".85"/><path d="M87.3 204.4 L86.3 68.1" stroke="#E2C589" stroke-width="1.2" opacity=".35"/><path d="M79.0 60.1 L79.0 63.0 Q92.0 59.0 105.0 63.0 L105.0 60.1 Z" fill="url(#g-culm)" stroke="#CDA85A" stroke-width="1" stroke-opacity=".55"/><rect x="77.0" y="59.0" width="30.0" height="4" rx="2" fill="#CDA85A" opacity=".85"/><path d="M86.3 54.1 L86.3 68.0" stroke="#E2C589" stroke-width="1.2" opacity=".35"/><path d="M151.0 1200.0 L152.4 1056.0 Q161.4 1052.0 170.4 1056.0 L169.0 1200.0 Z" fill="url(#g-culm)" stroke="#CDA85A" stroke-width="1" stroke-opacity=".55"/><rect x="150.4" y="1052.0" width="22.0" height="4" rx="2" fill="#CDA85A" opacity=".85"/><path d="M156.0 1194.0 L157.4 1061.0" stroke="#E2C589" stroke-width="1.2" opacity=".35"/><path d="M152.4 1053.0 L153.6 925.3 Q162.6 921.3 171.6 925.3 L170.4 1053.0 Z" fill="url(#g-culm)" stroke="#CDA85A" stroke-width="1" stroke-opacity=".55"/><rect x="151.6" y="921.3" width="22.0" height="4" rx="2" fill="#CDA85A" opacity=".85"/><path d="M157.4 1047.0 L158.7 930.3" stroke="#E2C589" stroke-width="1.2" opacity=".35"/><path d="M153.6 922.3 L154.9 793.8 Q163.9 789.8 172.9 793.8 L171.6 922.3 Z" fill="url(#g-culm)" stroke="#CDA85A" stroke-width="1" stroke-opacity=".55"/><rect x="152.9" y="789.8" width="22.0" height="4" rx="2" fill="#CDA85A" opacity=".85"/><path d="M158.7 916.3 L159.9 798.8" stroke="#E2C589" stroke-width="1.2" opacity=".35"/><path d="M154.9 790.8 L156.3 647.2 Q165.3 643.2 174.3 647.2 L172.9 790.8 Z" fill="url(#g-culm)" stroke="#CDA85A" stroke-width="1" stroke-opacity=".55"/><rect x="154.3" y="643.2" width="22.0" height="4" rx="2" fill="#CDA85A" opacity=".85"/><path d="M159.9 784.8 L161.3 652.2" stroke="#E2C589" stroke-width="1.2" opacity=".35"/><path d="M156.3 644.2 L157.9 482.4 Q166.9 478.4 175.9 482.4 L174.3 644.2 Z" fill="url(#g-culm)" stroke="#CDA85A" stroke-width="1" stroke-opacity=".55"/><rect x="155.9" y="478.4" width="22.0" height="4" rx="2" fill="#CDA85A" opacity=".85"/><path d="M161.3 638.2 L162.9 487.4" stroke="#E2C589" stroke-width="1.2" opacity=".35"/><path d="M157.9 479.4 L159.1 349.4 Q168.1 345.4 177.1 349.4 L175.9 479.4 Z" fill="url(#g-culm)" stroke="#CDA85A" stroke-width="1" stroke-opacity=".55"/><rect x="157.1" y="345.4" width="22.0" height="4" rx="2" fill="#CDA85A" opacity=".85"/><path d="M162.9 473.4 L164.2 354.4" stroke="#E2C589" stroke-width="1.2" opacity=".35"/><path d="M159.1 346.4 L160.4 211.8 Q169.4 207.8 178.4 211.8 L177.1 346.4 Z" fill="url(#g-culm)" stroke="#CDA85A" stroke-width="1" stroke-opacity=".55"/><rect x="158.4" y="207.8" width="22.0" height="4" rx="2" fill="#CDA85A" opacity=".85"/><path d="M164.2 340.4 L165.5 216.8" stroke="#E2C589" stroke-width="1.2" opacity=".35"/><path d="M160.4 208.8 L161.0 153.0 Q170.0 149.0 179.0 153.0 L178.4 208.8 Z" fill="url(#g-culm)" stroke="#CDA85A" stroke-width="1" stroke-opacity=".55"/><rect x="159.0" y="149.0" width="22.0" height="4" rx="2" fill="#CDA85A" opacity=".85"/><path d="M165.5 202.8 L166.0 158.0" stroke="#E2C589" stroke-width="1.2" opacity=".35"/><path d="M203.5 1200.0 L202.8 1032.9 Q209.3 1028.9 215.8 1032.9 L216.5 1200.0 Z" fill="url(#g-culm)" stroke="#CDA85A" stroke-width="1" stroke-opacity=".55"/><rect x="200.8" y="1028.9" width="17.0" height="4" rx="2" fill="#CDA85A" opacity=".85"/><path d="M207.1 1194.0 L206.4 1037.9" stroke="#E2C589" stroke-width="1.2" opacity=".35"/><path d="M202.8 1029.9 L202.1 879.4 Q208.6 875.4 215.1 879.4 L215.8 1029.9 Z" fill="url(#g-culm)" stroke="#CDA85A" stroke-width="1" stroke-opacity=".55"/><rect x="200.1" y="875.4" width="17.0" height="4" rx="2" fill="#CDA85A" opacity=".85"/><path d="M206.4 1023.9 L205.8 884.4" stroke="#E2C589" stroke-width="1.2" opacity=".35"/><path d="M202.1 876.4 L201.5 734.0 Q208.0 730.0 214.5 734.0 L215.1 876.4 Z" fill="url(#g-culm)" stroke="#CDA85A" stroke-width="1" stroke-opacity=".55"/><rect x="199.5" y="730.0" width="17.0" height="4" rx="2" fill="#CDA85A" opacity=".85"/><path d="M205.8 870.4 L205.1 739.0" stroke="#E2C589" stroke-width="1.2" opacity=".35"/><path d="M201.5 731.0 L200.8 562.6 Q207.3 558.6 213.8 562.6 L214.5 731.0 Z" fill="url(#g-culm)" stroke="#CDA85A" stroke-width="1" stroke-opacity=".55"/><rect x="198.8" y="558.6" width="17.0" height="4" rx="2" fill="#CDA85A" opacity=".85"/><path d="M205.1 725.0 L204.4 567.6" stroke="#E2C589" stroke-width="1.2" opacity=".35"/><path d="M200.8 559.6 L200.2 433.0 Q206.7 429.0 213.2 433.0 L213.8 559.6 Z" fill="url(#g-culm)" stroke="#CDA85A" stroke-width="1" stroke-opacity=".55"/><rect x="198.2" y="429.0" width="17.0" height="4" rx="2" fill="#CDA85A" opacity=".85"/><path d="M204.4 553.6 L203.9 438.0" stroke="#E2C589" stroke-width="1.2" opacity=".35"/><path d="M200.2 430.0 L199.5 266.9 Q206.0 262.9 212.5 266.9 L213.2 430.0 Z" fill="url(#g-culm)" stroke="#CDA85A" stroke-width="1" stroke-opacity=".55"/><rect x="197.5" y="262.9" width="17.0" height="4" rx="2" fill="#CDA85A" opacity=".85"/><path d="M203.9 424.0 L203.2 271.9" stroke="#E2C589" stroke-width="1.2" opacity=".35"/><path d="M199.5 263.9 L199.5 263.0 Q206.0 259.0 212.5 263.0 L212.5 263.9 Z" fill="url(#g-culm)" stroke="#CDA85A" stroke-width="1" stroke-opacity=".55"/><rect x="197.5" y="259.0" width="17.0" height="4" rx="2" fill="#CDA85A" opacity=".85"/><path d="M203.2 257.9 L203.1 268.0" stroke="#E2C589" stroke-width="1.2" opacity=".35"/><path d="M112.0 330.0 q 33.0 -12 68.2 -30" stroke="#CDA85A" stroke-width="1.3" fill="none" opacity=".8"/><g transform="translate(180.2 297.0) rotate(-37.3)" opacity="0.92"><path d="M0 0 C 18.1 -11.5, 49.3 -12.1, 82.2 0 C 49.3 9.2, 18.1 8.6, 0 0 Z" fill="#8DB26A" stroke="#CDA85A" stroke-width="1.1"/><path d="M4.1 0 L75.6 0" stroke="#CDA85A" stroke-width=".7" opacity=".7"/></g><g transform="translate(170.3 303.6) rotate(-18.3)" opacity="0.92"><path d="M0 0 C 24.8 -15.8, 67.7 -16.6, 112.9 0 C 67.7 12.6, 24.8 11.9, 0 0 Z" fill="#5E7F3C" stroke="#CDA85A" stroke-width="1.1"/><path d="M5.6 0 L103.9 0" stroke="#CDA85A" stroke-width=".7" opacity=".7"/></g><g transform="translate(160.4 310.2) rotate(-2.8)" opacity="0.92"><path d="M0 0 C 22.6 -14.4, 61.6 -15.1, 102.6 0 C 61.6 11.5, 22.6 10.8, 0 0 Z" fill="#8DB26A" stroke="#CDA85A" stroke-width="1.1"/><path d="M5.1 0 L94.4 0" stroke="#CDA85A" stroke-width=".7" opacity=".7"/></g><g transform="translate(150.5 316.8) rotate(19.7)" opacity="0.92"><path d="M0 0 C 20.5 -13.1, 56.0 -13.7, 93.4 0 C 56.0 10.5, 20.5 9.8, 0 0 Z" fill="#5E7F3C" stroke="#CDA85A" stroke-width="1.1"/><path d="M4.7 0 L85.9 0" stroke="#CDA85A" stroke-width=".7" opacity=".7"/></g><g transform="translate(140.6 323.4) rotate(35.6)" opacity="0.92"><path d="M0 0 C 17.5 -11.2, 47.9 -11.7, 79.8 0 C 47.9 8.9, 17.5 8.4, 0 0 Z" fill="#8DB26A" stroke="#CDA85A" stroke-width="1.1"/><path d="M4.0 0 L73.4 0" stroke="#CDA85A" stroke-width=".7" opacity=".7"/></g><g transform="translate(130.7 330.0) rotate(46.7)" opacity="0.92"><path d="M0 0 C 18.9 -12.0, 51.6 -12.7, 86.1 0 C 51.6 9.6, 18.9 9.0, 0 0 Z" fill="#5E7F3C" stroke="#CDA85A" stroke-width="1.1"/><path d="M4.3 0 L79.2 0" stroke="#CDA85A" stroke-width=".7" opacity=".7"/></g><path d="M152.0 520.0 q -30.0 -12 -62.0 -30" stroke="#CDA85A" stroke-width="1.3" fill="none" opacity=".8"/><g transform="translate(90.0 490.0) rotate(206.7)" opacity="0.92"><path d="M0 0 C 19.2 -12.2, 52.3 -12.8, 87.1 0 C 52.3 9.8, 19.2 9.1, 0 0 Z" fill="#8DB26A" stroke="#CDA85A" stroke-width="1.1"/><path d="M4.4 0 L80.1 0" stroke="#CDA85A" stroke-width=".7" opacity=".7"/></g><g transform="translate(99.0 496.0) rotate(185.3)" opacity="0.92"><path d="M0 0 C 20.6 -13.1, 56.1 -13.7, 93.4 0 C 56.1 10.5, 20.6 9.8, 0 0 Z" fill="#5E7F3C" stroke="#CDA85A" stroke-width="1.1"/><path d="M4.7 0 L85.9 0" stroke="#CDA85A" stroke-width=".7" opacity=".7"/></g><g transform="translate(108.0 502.0) rotate(169.9)" opacity="0.92"><path d="M0 0 C 18.0 -11.5, 49.2 -12.1, 82.0 0 C 49.2 9.2, 18.0 8.6, 0 0 Z" fill="#8DB26A" stroke="#CDA85A" stroke-width="1.1"/><path d="M4.1 0 L75.4 0" stroke="#CDA85A" stroke-width=".7" opacity=".7"/></g><g transform="translate(117.0 508.0) rotate(157.0)" opacity="0.92"><path d="M0 0 C 21.6 -13.7, 58.8 -14.4, 98.0 0 C 58.8 11.0, 21.6 10.3, 0 0 Z" fill="#5E7F3C" stroke="#CDA85A" stroke-width="1.1"/><path d="M4.9 0 L90.1 0" stroke="#CDA85A" stroke-width=".7" opacity=".7"/></g><g transform="translate(126.0 514.0) rotate(133.4)" opacity="0.92"><path d="M0 0 C 20.5 -13.0, 55.8 -13.7, 93.0 0 C 55.8 10.4, 20.5 9.8, 0 0 Z" fill="#8DB26A" stroke="#CDA85A" stroke-width="1.1"/><path d="M4.6 0 L85.5 0" stroke="#CDA85A" stroke-width=".7" opacity=".7"/></g><path d="M168.0 760.0 q 31.5 -12 65.1 -30" stroke="#CDA85A" stroke-width="1.3" fill="none" opacity=".8"/><g transform="translate(233.1 728.5) rotate(-32.7)" opacity="0.92"><path d="M0 0 C 24.3 -15.4, 66.2 -16.2, 110.3 0 C 66.2 12.3, 24.3 11.6, 0 0 Z" fill="#8DB26A" stroke="#CDA85A" stroke-width="1.1"/><path d="M5.5 0 L101.4 0" stroke="#CDA85A" stroke-width=".7" opacity=".7"/></g><g transform="translate(223.7 734.8) rotate(-13.2)" opacity="0.92"><path d="M0 0 C 18.8 -12.0, 51.4 -12.6, 85.6 0 C 51.4 9.6, 18.8 9.0, 0 0 Z" fill="#5E7F3C" stroke="#CDA85A" stroke-width="1.1"/><path d="M4.3 0 L78.7 0" stroke="#CDA85A" stroke-width=".7" opacity=".7"/></g><g transform="translate(214.2 741.1) rotate(6.8)" opacity="0.92"><path d="M0 0 C 17.3 -11.0, 47.1 -11.5, 78.5 0 C 47.1 8.8, 17.3 8.2, 0 0 Z" fill="#8DB26A" stroke="#CDA85A" stroke-width="1.1"/><path d="M3.9 0 L72.2 0" stroke="#CDA85A" stroke-width=".7" opacity=".7"/></g><g transform="translate(204.8 747.4) rotate(17.0)" opacity="0.92"><path d="M0 0 C 23.2 -14.7, 63.2 -15.5, 105.3 0 C 63.2 11.8, 23.2 11.1, 0 0 Z" fill="#5E7F3C" stroke="#CDA85A" stroke-width="1.1"/><path d="M5.3 0 L96.9 0" stroke="#CDA85A" stroke-width=".7" opacity=".7"/></g><g transform="translate(195.3 753.7) rotate(30.8)" opacity="0.92"><path d="M0 0 C 20.7 -13.2, 56.4 -13.8, 94.0 0 C 56.4 10.5, 20.7 9.9, 0 0 Z" fill="#8DB26A" stroke="#CDA85A" stroke-width="1.1"/><path d="M4.7 0 L86.5 0" stroke="#CDA85A" stroke-width=".7" opacity=".7"/></g><g transform="translate(185.9 760.0) rotate(46.5)" opacity="0.92"><path d="M0 0 C 22.3 -14.2, 60.9 -14.9, 101.6 0 C 60.9 11.4, 22.3 10.7, 0 0 Z" fill="#5E7F3C" stroke="#CDA85A" stroke-width="1.1"/><path d="M5.1 0 L93.4 0" stroke="#CDA85A" stroke-width=".7" opacity=".7"/></g><path d="M205.0 420.0 q 25.5 -12 52.7 -30" stroke="#CDA85A" stroke-width="1.3" fill="none" opacity=".8"/><g transform="translate(257.7 394.5) rotate(-12.8)" opacity="0.92"><path d="M0 0 C 17.4 -11.1, 47.4 -11.6, 79.0 0 C 47.4 8.8, 17.4 8.3, 0 0 Z" fill="#8DB26A" stroke="#CDA85A" stroke-width="1.1"/><path d="M3.9 0 L72.7 0" stroke="#CDA85A" stroke-width=".7" opacity=".7"/></g><g transform="translate(250.0 399.6) rotate(5.5)" opacity="0.92"><path d="M0 0 C 15.4 -9.8, 42.1 -10.3, 70.2 0 C 42.1 7.9, 15.4 7.4, 0 0 Z" fill="#5E7F3C" stroke="#CDA85A" stroke-width="1.1"/><path d="M3.5 0 L64.6 0" stroke="#CDA85A" stroke-width=".7" opacity=".7"/></g><g transform="translate(242.4 404.7) rotate(20.3)" opacity="0.92"><path d="M0 0 C 17.5 -11.2, 47.8 -11.7, 79.7 0 C 47.8 8.9, 17.5 8.4, 0 0 Z" fill="#8DB26A" stroke="#CDA85A" stroke-width="1.1"/><path d="M4.0 0 L73.3 0" stroke="#CDA85A" stroke-width=".7" opacity=".7"/></g><g transform="translate(234.8 409.8) rotate(36.0)" opacity="0.92"><path d="M0 0 C 16.5 -10.5, 45.0 -11.0, 75.0 0 C 45.0 8.4, 16.5 7.9, 0 0 Z" fill="#5E7F3C" stroke="#CDA85A" stroke-width="1.1"/><path d="M3.8 0 L69.0 0" stroke="#CDA85A" stroke-width=".7" opacity=".7"/></g><path d="M95.0 900.0 q 30.0 -12 62.0 -30" stroke="#CDA85A" stroke-width="1.3" fill="none" opacity=".8"/><g transform="translate(157.0 870.0) rotate(-20.4)" opacity="0.92"><path d="M0 0 C 23.7 -15.1, 64.7 -15.8, 107.8 0 C 64.7 12.1, 23.7 11.3, 0 0 Z" fill="#8DB26A" stroke="#CDA85A" stroke-width="1.1"/><path d="M5.4 0 L99.2 0" stroke="#CDA85A" stroke-width=".7" opacity=".7"/></g><g transform="translate(148.0 876.0) rotate(-7.8)" opacity="0.92"><path d="M0 0 C 21.2 -13.5, 57.9 -14.2, 96.6 0 C 57.9 10.8, 21.2 10.1, 0 0 Z" fill="#5E7F3C" stroke="#CDA85A" stroke-width="1.1"/><path d="M4.8 0 L88.8 0" stroke="#CDA85A" stroke-width=".7" opacity=".7"/></g><g transform="translate(139.0 882.0) rotate(4.2)" opacity="0.92"><path d="M0 0 C 21.6 -13.7, 58.8 -14.4, 98.1 0 C 58.8 11.0, 21.6 10.3, 0 0 Z" fill="#8DB26A" stroke="#CDA85A" stroke-width="1.1"/><path d="M4.9 0 L90.2 0" stroke="#CDA85A" stroke-width=".7" opacity=".7"/></g><g transform="translate(130.0 888.0) rotate(28.3)" opacity="0.92"><path d="M0 0 C 24.1 -15.4, 65.8 -16.1, 109.7 0 C 65.8 12.3, 24.1 11.5, 0 0 Z" fill="#5E7F3C" stroke="#CDA85A" stroke-width="1.1"/><path d="M5.5 0 L100.9 0" stroke="#CDA85A" stroke-width=".7" opacity=".7"/></g><g transform="translate(121.0 894.0) rotate(47.4)" opacity="0.92"><path d="M0 0 C 17.9 -11.4, 48.8 -12.0, 81.4 0 C 48.8 9.1, 17.9 8.5, 0 0 Z" fill="#8DB26A" stroke="#CDA85A" stroke-width="1.1"/><path d="M4.1 0 L74.9 0" stroke="#CDA85A" stroke-width=".7" opacity=".7"/></g><path d="M216.0 980.0 q -24.0 -12 -49.6 -30" stroke="#CDA85A" stroke-width="1.3" fill="none" opacity=".8"/><g transform="translate(166.4 956.0) rotate(194.6)" opacity="0.92"><path d="M0 0 C 17.0 -10.8, 46.4 -11.4, 77.4 0 C 46.4 8.7, 17.0 8.1, 0 0 Z" fill="#8DB26A" stroke="#CDA85A" stroke-width="1.1"/><path d="M3.9 0 L71.2 0" stroke="#CDA85A" stroke-width=".7" opacity=".7"/></g><g transform="translate(173.6 960.8) rotate(173.3)" opacity="0.92"><path d="M0 0 C 15.6 -9.9, 42.5 -10.4, 70.8 0 C 42.5 7.9, 15.6 7.4, 0 0 Z" fill="#5E7F3C" stroke="#CDA85A" stroke-width="1.1"/><path d="M3.5 0 L65.1 0" stroke="#CDA85A" stroke-width=".7" opacity=".7"/></g><g transform="translate(180.8 965.6) rotate(158.0)" opacity="0.92"><path d="M0 0 C 13.1 -8.4, 35.8 -8.8, 59.7 0 C 35.8 6.7, 13.1 6.3, 0 0 Z" fill="#8DB26A" stroke="#CDA85A" stroke-width="1.1"/><path d="M3.0 0 L55.0 0" stroke="#CDA85A" stroke-width=".7" opacity=".7"/></g><g transform="translate(188.0 970.4) rotate(139.7)" opacity="0.92"><path d="M0 0 C 17.7 -11.3, 48.4 -11.8, 80.6 0 C 48.4 9.0, 17.7 8.5, 0 0 Z" fill="#5E7F3C" stroke="#CDA85A" stroke-width="1.1"/><path d="M4.0 0 L74.1 0" stroke="#CDA85A" stroke-width=".7" opacity=".7"/></g></svg>